# xmcd CD database file
#
# Track frame offsets:
#	150
#	30367
#	53574
#	77353
#	98815
#	126307
#	145988
#	169916
#	204994
#	239278
#
# Disc length: 3609 seconds
#
# Revision: 0
# Processed by: cddbd v1.5.1PL0 Copyright (c) Steve Scherf et al.
# Submitted via: CDex 1.40Release
#
DISCID=790e170a
DTITLE=Le mistral - This hard road
DYEAR=1900
DGENRE=Country
TTITLE0=wait until tomorrow
TTITLE1=tonight
TTITLE2=waiting for that dream
TTITLE3=this hard road
TTITLE4=the long road (part 2)
TTITLE5=the next best thing
TTITLE6=time pieces
TTITLE7=where are the days
TTITLE8=how do I get through to you
TTITLE9=someone like you
EXTD=ID3G: 2
EXTT0=
EXTT1=
EXTT2=
EXTT3=
EXTT4=
EXTT5=
EXTT6=
EXTT7=
EXTT8=
EXTT9=
PLAYORDER=
